<svg id="Слой_1" data-name="Слой 1" xmlns="http://www.w3.org/2000/svg" viewBox="0 0 794.64 836.24"><defs><style>.cls-1{fill:#ff7d4a;}</style></defs><title>logo_peach</title><path class="cls-1" d="M769.09,858.32c6.89,12.49,13.84,24.44,21.23,36.38,52-58.92,125-117.89,203.18-117.88,31,0,76.71.19,145,51.06,108.1,80.58,188.58,229.55,237.15,356.22a412.86,412.86,0,0,0,21.72-53.19C1264.58,814.31,1021.55,584.1,769.09,858.32Z" transform="translate(-602.68 -581.9)"/><path class="cls-1" d="M655.75,1020.2a1185.53,1185.53,0,0,0-53.07,110.7,412.78,412.78,0,0,0,21.72,53.19,1209.31,1209.31,0,0,1,55.8-124.77C671.78,1046.56,663.9,1034,655.75,1020.2Z" transform="translate(-602.68 -581.9)"/><path class="cls-1" d="M1344.25,979.8a1185.5,1185.5,0,0,0,53.07-110.7,412.86,412.86,0,0,0-21.72-53.19,1209.39,1209.39,0,0,1-55.8,124.77C1328,953,1335.86,965.63,1344.25,979.8Z" transform="translate(-602.68 -581.9)"/><path class="cls-1" d="M837.64,1204.19c52.56,39.18,104.92,59,155.81,59h13.11c86.82,0,165.81-57.92,224.35-121.51-6.87-12.47-13.82-24.41-21.23-36.38-23.32,26.44-47.27,49-71.23,66.82-72,53.65-120.75,51.08-145.07,51.06-132.94-.09-251.49-163.86-313.18-282.52A1209.43,1209.43,0,0,1,624.4,815.9a412.78,412.78,0,0,0-21.72,53.19C653.57,990.48,732.66,1125.94,837.64,1204.19Z" transform="translate(-602.68 -581.9)"/><path class="cls-1" d="M853.66,1064.5c47.22,39.66,94.46,59.72,140.54,59.72h11.64c46.07,0,93.3-20.07,140.51-59.72q10.85-9.11,21.53-19.47-12.86-16.43-25.93-30.64-10.64,10.5-21.33,19.49c-39.81,33.44-78.43,50.36-114.88,50.35H994.26c-85.84,0-164.9-92.45-211.88-164.71-31.14-47.91-57.69-100.79-79.7-153,151.69-192.69,442.65-193.06,594.63,0q-19.78,46.95-42.1,89,13.91,15.81,27.46,33.26A1142.69,1142.69,0,0,0,1343,760.56c-166.4-237.84-519-238.58-685.9,0C699.58,866.83,765.58,990.53,853.66,1064.5Z" transform="translate(-602.68 -581.9)"/><path class="cls-1" d="M1216.14,1009.19h0c-.27-.36-.62-.79-.93-1.19h0c-2.35-2.94-6.51-7.84-6.38-8-50.9-62.8-122.45-124.22-203-124.22H994.15c-61.83,0-117.62,36.15-162,79.19q12.86,16.43,25.93,30.64c36.6-36.1,84.82-69.87,136.21-69.83h11.47c71.05,0,140.59,66.24,182.5,122.9h0c44.48,58.32,80.72,127.54,109.08,194.85-152,193.09-443,192.62-594.63,0q19.78-46.95,42.1-89-13.91-15.81-27.46-33.26A1139.33,1139.33,0,0,0,657,1239.44c166.71,238.28,519.19,238.28,685.9,0C1311.13,1159.92,1268.91,1077.06,1216.14,1009.19Z" transform="translate(-602.68 -581.9)"/></svg>