<svg id="Слой_1" data-name="Слой 1" xmlns="http://www.w3.org/2000/svg" viewBox="0 0 127.93 127.93"><defs><style>.cls-1{fill:#353434;}.cls-2{fill:#fff;}.cls-3{fill:none;stroke:#fff;stroke-miterlimit:10;stroke-width:5px;}</style></defs><title>pencil</title><circle class="cls-1" cx="63.96" cy="63.96" r="63.96"/><path class="cls-2" d="M1185.07,342.83l10.77,10.77c-.13.13-42.87,42.92-43,43.07a1.36,1.36,0,0,1-.64.31l-2.91.63c-1.86.37-3.52.65-4.92.84s-2.58.29-3.35.37c-.38,0-.7,0-.91.06l-.32,0s0-.11,0-.32,0-.53.06-.91c.09-.77.16-2,.37-3.34s.47-3.06.84-4.92c.2-.91.41-1.88.64-2.9a1.3,1.3,0,0,1,.3-.64C1142.15,385.69,1184.93,343,1185.07,342.83Z" transform="translate(-1104.41 -311.24)"/><line class="cls-3" x1="35.36" y1="98.17" x2="91.43" y2="98.17"/></svg>